Coordinates
version=1
nRows=65
nColumns=11
inDegrees=no

Units are S.I. units (second, meters, Newtons, ...)
If the header above contains a line with 'inDegrees', this indicates whether rotational values are in degrees (yes) or radians (no).

endheader
time	pelvis_tilt	pelvis_tx	pelvis_ty	hip_flexion_r	knee_angle_r	ankle_angle_r	hip_flexion_l	knee_angle_l	ankle_angle_l	lumbar_extension
0.01	-0.203151	0.121958	0.997121	0.204675	-0.0482172	0.276056	0.122099	0.0747176	0.225507	0
0.02	-0.202126	0.121761	0.996978	0.205396	-0.0512953	0.279364	0.121532	0.0737065	0.22738	0
0.03	-0.200736	0.12176	0.997055	0.204082	-0.0516315	0.279128	0.120215	0.0731048	0.227728	0
0.04	-0.198452	0.122239	0.997227	0.200035	-0.0495541	0.278895	0.116238	0.0749806	0.227435	0
0.05	-0.195728	0.122693	0.997473	0.195082	-0.0469147	0.278749	0.112139	0.0762824	0.228031	0
0.06	-0.193402	0.122857	0.997797	0.192054	-0.0462762	0.278499	0.106212	0.0820993	0.225287	0
0.07	-0.191961	0.122797	0.997917	0.190742	-0.046602	0.279317	0.102927	0.0854	0.223043	0
0.08	-0.191714	0.122465	0.997902	0.191497	-0.0477551	0.280175	0.105005	0.0821548	0.225133	0
0.09	-0.191957	0.122196	0.997914	0.192503	-0.0483616	0.280271	0.108	0.0779283	0.22718	0
0.1	-0.191994	0.121886	0.997948	0.193559	-0.0495858	0.279292	0.108791	0.0770113	0.22675	0
0.11	-0.191817	0.12153	0.997916	0.194664	-0.0512318	0.279585	0.108129	0.078376	0.226191	0
0.12	-0.191417	0.121237	0.99789	0.195176	-0.052533	0.279824	0.105944	0.0819848	0.224295	0
0.13	-0.190576	0.121124	0.997873	0.194799	-0.0532898	0.279799	0.104242	0.0840665	0.223388	0
0.14	-0.189979	0.120897	0.997944	0.194824	-0.0541118	0.279244	0.103209	0.0851912	0.222569	0
0.15	-0.189773	0.12068	0.997992	0.195263	-0.0546434	0.278759	0.103118	0.0855612	0.222469	0
0.16	-0.189384	0.120349	0.997966	0.195547	-0.0553804	0.279616	0.103163	0.0853284	0.223046	0
0.17	-0.189308	0.120046	0.997938	0.196486	-0.0563846	0.280151	0.102969	0.0864368	0.22238	0
0.18	-0.189475	0.119519	0.997964	0.197697	-0.0572081	0.279871	0.102855	0.0880339	0.220205	0
0.19	-0.189276	0.119129	0.998117	0.197777	-0.0567593	0.279355	0.100949	0.091956	0.216735	0
0.2	-0.188823	0.11885	0.998177	0.197553	-0.0565347	0.27935	0.0976014	0.0971928	0.213243	0
0.21	-0.187456	0.118783	0.998176	0.195668	-0.0558019	0.279859	0.0949461	0.0978522	0.212858	0
0.22	-0.187334	0.118555	0.998029	0.195317	-0.0557171	0.280278	0.0951589	0.0951142	0.214627	0
0.23	-0.187644	0.118349	0.997847	0.194818	-0.0554375	0.2823	0.0960546	0.0924602	0.217829	0
0.24	-0.186731	0.118206	0.99784	0.19252	-0.0552923	0.283652	0.0956471	0.090283	0.220931	0
0.25	-0.184874	0.118111	0.997849	0.190256	-0.0565935	0.285654	0.0940354	0.0885107	0.224524	0
0.26	-0.184588	0.117672	0.997863	0.190935	-0.0589897	0.284612	0.0946271	0.0863132	0.228007	0
0.27	-0.184493	0.117219	0.997804	0.192264	-0.0627208	0.281546	0.0954145	0.084213	0.232132	0
0.28	-0.183885	0.116724	0.997695	0.192856	-0.0670866	0.284457	0.0949188	0.0827384	0.231943	0
0.29	-0.183722	0.116435	0.997692	0.192891	-0.0688166	0.287851	0.0953177	0.0808968	0.23225	0
0.3	-0.18349	0.116206	0.997613	0.191092	-0.0668596	0.288177	0.0947682	0.0801116	0.235253	0
0.31	-0.183421	0.115982	0.997465	0.188565	-0.0634787	0.286326	0.0928335	0.0824382	0.238682	0
0.32	-0.184074	0.11557	0.997374	0.188617	-0.0634388	0.284507	0.0927959	0.0824929	0.237861	0
0.33	-0.184738	0.114981	0.997148	0.189501	-0.0646727	0.286892	0.0922723	0.0831789	0.234124	0
0.34	-0.183894	0.114694	0.996978	0.187445	-0.0639633	0.289821	0.0892358	0.0852075	0.23272	0
0.35	-0.182529	0.114635	0.996972	0.184441	-0.0625869	0.2903	0.0867847	0.0846983	0.233778	0
0.36	-0.182316	0.114395	0.997048	0.183442	-0.062537	0.289399	0.0868038	0.0825686	0.23422	0
0.37	-0.182284	0.114024	0.997116	0.182554	-0.063278	0.288904	0.0862698	0.0820308	0.232691	0
0.38	-0.183218	0.113472	0.996981	0.184368	-0.0663023	0.289464	0.0864953	0.0826889	0.234317	0
0.39	-0.184071	0.113001	0.996824	0.185339	-0.0674248	0.29068	0.0962088	0.0649473	0.246034	0
0.4	-0.184024	0.11284	0.996811	0.184455	-0.0676633	0.292222	0.105702	0.0446138	0.259254	0
0.41	-0.1837	0.112717	0.996814	0.183927	-0.0699148	0.294836	0.103897	0.0447585	0.257612	0
0.42	-0.183595	0.11242	0.996711	0.1825	-0.0696246	0.2972	0.0952333	0.0587876	0.249958	0
0.43	-0.184823	0.111783	0.996306	0.182609	-0.0684405	0.298194	0.0829554	0.083043	0.238018	0
0.44	-0.185943	0.111216	0.996031	0.182735	-0.0683025	0.297539	0.0829417	0.0834132	0.240172	0
0.45	-0.186298	0.110912	0.995889	0.182027	-0.0680917	0.297067	0.0810581	0.0853691	0.239361	0
0.46	-0.186295	0.110698	0.995818	0.180972	-0.0679799	0.297979	0.0792461	0.0865478	0.239383	0
0.47	-0.186325	0.110521	0.995729	0.179213	-0.0672518	0.301104	0.0796181	0.0834425	0.243059	0
0.48	-0.186396	0.110337	0.995591	0.177215	-0.0658629	0.302582	0.0794512	0.0810913	0.245903	0
0.49	-0.186134	0.110091	0.995514	0.174583	-0.064335	0.302592	0.0753062	0.0866772	0.245005	0
0.5	-0.186127	0.109529	0.995397	0.173864	-0.0653795	0.304169	0.0711693	0.093141	0.245287	0
0.51	-0.186327	0.109114	0.995389	0.173407	-0.0658722	0.304632	0.0731504	0.0881723	0.249597	0
0.52	-0.185972	0.108955	0.995462	0.171008	-0.0645161	0.305722	0.0840603	0.0650405	0.262271	0
0.53	-0.186763	0.108464	0.995212	0.171404	-0.065709	0.308594	0.0833325	0.0659228	0.263279	0
0.54	-0.188515	0.107642	0.994826	0.174024	-0.0687082	0.31118	0.0765506	0.0802616	0.256327	0
0.55	-0.189806	0.107019	0.994526	0.175632	-0.0715969	0.312763	0.0737037	0.0853895	0.25238	0
0.56	-0.1909	0.106506	0.99424	0.176613	-0.0740575	0.313098	0.0710842	0.0888504	0.245215	0
0.57	-0.191419	0.106114	0.993995	0.175733	-0.0740121	0.315413	0.0690855	0.0901302	0.238303	0
0.58	-0.191404	0.105921	0.993827	0.172674	-0.071393	0.316013	0.0680501	0.0893085	0.239454	0
0.59	-0.191399	0.105713	0.993735	0.170002	-0.069319	0.314051	0.0690679	0.0845895	0.24721	0
0.6	-0.191743	0.105149	0.993599	0.169601	-0.0699657	0.315682	0.06936	0.0827221	0.253274	0
0.61	-0.193435	0.103891	0.993205	0.172041	-0.0724065	0.317166	0.0709599	0.0829944	0.255814	0
0.62	-0.195973	0.102365	0.992851	0.176028	-0.0757899	0.31714	0.0742621	0.0818164	0.25838	0
0.63	-0.196522	0.101794	0.992684	0.174615	-0.0746929	0.316602	0.0749186	0.0785213	0.256833	0
0.64	-0.195453	0.101841	0.992499	0.169542	-0.0706372	0.316435	0.0735677	0.0747509	0.256138	0
0.65	-0.195158	0.101591	0.992286	0.16689	-0.0690975	0.31738	0.0744056	0.0688082	0.26043	0
